<svg id="visual" viewBox="0 0 540 960" width="540" height="960" xmlns="http://www.w3.org/2000/svg" xmlns:xlink="http://www.w3.org/1999/xlink" version="1.1"><rect x="0" y="0" width="540" height="960" fill="#3b3b38"></rect><defs><linearGradient id="grad1_0" x1="0%" y1="0%" x2="100%" y2="100%"><stop offset="30%" stop-color="#3b3b38" stop-opacity="1"></stop><stop offset="70%" stop-color="#3b3b38" stop-opacity="1"></stop></linearGradient></defs><defs><linearGradient id="grad2_0" x1="0%" y1="0%" x2="100%" y2="100%"><stop offset="30%" stop-color="#3b3b38" stop-opacity="1"></stop><stop offset="70%" stop-color="#3b3b38" stop-opacity="1"></stop></linearGradient></defs><g transform="translate(540, 0)"><path d="M0 243C-27.7 228.3 -55.5 213.6 -83.8 202.3C-112.2 191.1 -141.1 183.4 -166.2 166.2C-191.2 149 -212.4 122.3 -224.5 93C-236.7 63.7 -239.8 31.9 -243 0L0 0Z" fill="#788aff"></path></g><g transform="translate(0, 960)"><path d="M0 -243C27.3 -221.4 54.5 -199.9 75.4 -182C96.3 -164.2 110.7 -150 137.9 -137.9C165 -125.8 204.9 -115.6 224.5 -93C244.1 -70.3 243.6 -35.2 243 0L0 0Z" fill="#788aff"></path></g></svg>