<svg id="visual" viewBox="0 0 960 540" width="960" height="540" xmlns="http://www.w3.org/2000/svg" xmlns:xlink="http://www.w3.org/1999/xlink" version="1.1"><rect x="0" y="0" width="960" height="540" fill="#3b3b38"></rect><defs><linearGradient id="grad1_0" x1="43.8%" y1="0%" x2="100%" y2="100%"><stop offset="14.444444444444446%" stop-color="#3b3b38" stop-opacity="1"></stop><stop offset="85.55555555555554%" stop-color="#3b3b38" stop-opacity="1"></stop></linearGradient></defs><defs><linearGradient id="grad2_0" x1="0%" y1="0%" x2="56.3%" y2="100%"><stop offset="14.444444444444446%" stop-color="#3b3b38" stop-opacity="1"></stop><stop offset="85.55555555555554%" stop-color="#3b3b38" stop-opacity="1"></stop></linearGradient></defs><g transform="translate(960, 0)"><path d="M0 243C-31.1 235.7 -62.2 228.4 -89.2 215.3C-116.1 202.1 -138.9 183.1 -162.6 162.6C-186.3 142.2 -211 120.3 -224.5 93C-238 65.7 -240.5 32.8 -243 0L0 0Z" fill="#3f59ff"></path></g><g transform="translate(0, 540)"><path d="M0 -243C32.6 -240.9 65.2 -238.8 93 -224.5C120.8 -210.2 143.7 -183.7 157 -157C170.3 -130.3 173.9 -103.5 186.6 -77.3C199.4 -51.1 221.2 -25.6 243 0L0 0Z" fill="#3f59ff"></path></g></svg>